<?xml version="1.0" standalone="no"?>
<!DOCTYPE svg PUBLIC "-//W3C//DTD SVG 20010904//EN"
 "http://www.w3.org/TR/2001/REC-SVG-20010904/DTD/svg10.dtd">
<svg version="1.0" xmlns="http://www.w3.org/2000/svg"
 width="375.000000pt" height="375.000000pt" viewBox="0 0 375.000000 375.000000"
 preserveAspectRatio="xMidYMid meet">
<metadata>
Created by potrace 1.14, written by Peter Selinger 2001-2017
</metadata>
<g transform="translate(0.000000,375.000000) scale(0.100000,-0.100000)"
fill="#000000" stroke="none">
<path d="M1787 3714 c-1 -2 -36 -6 -77 -9 -41 -4 -84 -8 -95 -9 -16 -2 -91
-15 -115 -21 -3 -1 -18 -4 -35 -8 -16 -4 -41 -10 -55 -13 -37 -8 -42 -9 -85
-23 -287 -93 -533 -240 -733 -440 -95 -94 -132 -135 -177 -196 -17 -22 -33
-41 -37 -43 -5 -2 -8 -9 -8 -17 0 -7 -7 -19 -16 -26 -9 -7 -20 -22 -25 -34 -5
-11 -18 -33 -29 -50 -21 -32 -109 -207 -133 -265 -22 -52 -76 -223 -82 -262
-3 -18 -8 -40 -10 -48 -11 -40 -18 -84 -31 -210 -8 -70 -8 -249 0 -320 11
-111 16 -145 32 -222 3 -15 5 -30 5 -33 0 -2 6 -23 14 -45 8 -22 14 -44 14
-48 1 -46 134 -351 190 -437 11 -16 28 -45 37 -62 9 -18 20 -33 24 -33 5 0 11
-8 14 -18 4 -10 14 -27 24 -38 9 -10 35 -42 57 -69 88 -112 358 -355 394 -355
5 0 11 -4 13 -8 4 -10 105 -71 185 -111 90 -45 273 -116 326 -126 10 -3 27 -7
37 -10 18 -6 35 -9 90 -20 14 -3 36 -7 50 -11 147 -34 464 -34 635 0 216 42
373 97 553 192 56 29 108 58 115 64 6 6 47 35 90 66 199 140 363 318 505 549
15 25 76 138 77 145 1 3 10 23 20 45 45 99 90 232 110 324 3 11 7 29 9 40 49
219 50 558 1 756 -2 11 -9 40 -16 65 -6 25 -12 52 -14 60 -23 101 -113 306
-194 445 -82 138 -137 208 -271 344 -105 106 -256 231 -280 231 -6 0 -10 5
-10 10 0 6 -4 10 -10 10 -5 0 -26 12 -47 26 -83 57 -368 183 -449 198 -11 2
-49 11 -85 20 -98 24 -143 31 -259 42 -67 6 -239 11 -243 8z"/>
</g>
</svg>
